<?xml version="1.0" standalone="no"?>
<!DOCTYPE svg PUBLIC "-//W3C//DTD SVG 20010904//EN"
 "http://www.w3.org/TR/2001/REC-SVG-20010904/DTD/svg10.dtd">
<svg version="1.0" xmlns="http://www.w3.org/2000/svg"
 width="1080.000000pt" height="1080.000000pt" viewBox="0 0 1080.000000 1080.000000"
 preserveAspectRatio="xMidYMid meet">
<metadata>
Created by potrace 1.14, written by Peter Selinger 2001-2017
</metadata>
<g transform="translate(0.000000,1080.000000) scale(0.100000,-0.100000)"
fill="#000000" stroke="none">
<path d="M1101 8140 c-4 -3 -7 -401 -7 -886 l1 -880 90 38 c49 22 104 45 120
53 17 7 156 68 310 135 154 67 304 133 333 146 29 13 54 24 57 24 3 0 108 46
170 75 25 11 239 104 372 161 l32 14 695 -697 696 -696 -706 -707 c-697 -697
-707 -707 -733 -694 -14 6 -87 38 -161 69 -74 32 -173 75 -218 96 -46 22 -89
39 -96 39 -7 0 -16 4 -22 9 -5 5 -54 28 -109 51 -111 47 -409 176 -440 191
-11 5 -103 45 -205 90 -102 44 -191 83 -197 86 -10 4 -13 -176 -13 -881 l0
-886 1308 0 c719 0 1301 4 1294 8 -12 8 510 535 1388 1402 168 166 344 340
392 387 l87 86 931 -931 c512 -513 929 -936 926 -941 -3 -4 580 -8 1294 -8
l1300 0 0 890 c0 718 -2 887 -13 879 -7 -6 -98 -47 -202 -92 -194 -84 -219
-95 -338 -148 -37 -17 -71 -32 -75 -33 -15 -4 -79 -32 -142 -61 -36 -16 -85
-38 -110 -48 -25 -10 -70 -29 -100 -43 -30 -13 -89 -39 -130 -57 -41 -17 -95
-41 -120 -52 -25 -11 -91 -40 -147 -64 l-102 -44 -700 702 c-386 385 -701 705
-701 710 0 5 310 319 689 699 681 681 689 689 717 678 16 -5 42 -17 59 -24 33
-15 509 -222 730 -317 77 -33 163 -71 190 -83 28 -13 79 -35 115 -50 36 -15
94 -40 130 -57 36 -16 74 -33 85 -38 11 -5 46 -20 79 -34 32 -14 60 -26 62
-26 2 0 4 398 4 885 l0 885 -1301 0 c-1049 0 -1299 -2 -1291 -13 8 -9 -216
-239 -919 -946 l-930 -933 -929 929 c-512 512 -930 933 -930 937 0 3 7 6 15 6
8 0 15 3 15 8 0 8 -2587 10 -2599 2z"/>
</g>
</svg>
